<?xml version="1.0" encoding="utf-8"?><!-- Uploaded to: SVG Repo, www.svgrepo.com, Generator: SVG Repo Mixer Tools -->
<svg fill="#000000" width="800px" height="800px" viewBox="0 0 24 24" id="hotel-2" data-name="Flat Color" xmlns="http://www.w3.org/2000/svg" class="icon flat-color"><path id="secondary" d="M19,8H16a1,1,0,0,0-1,1V21a1,1,0,0,0,1,1h4a1,1,0,0,0,1-1V10A2,2,0,0,0,19,8Z" style="fill: rgb(44, 169, 188);"></path><path id="primary" d="M21,20H17V3a1,1,0,0,0-.42-.81,1,1,0,0,0-.9-.14L4.37,5.82A2,2,0,0,0,3,7.72V20a1,1,0,0,0,0,2H21a1,1,0,0,0,0-2Z" style="fill: rgb(0, 0, 0);"></path><path id="secondary-2" data-name="secondary" d="M12,14H8a1,1,0,0,0-1,1v5h6V15A1,1,0,0,0,12,14Z" style="fill: rgb(44, 169, 188);"></path></svg>